<svg width="550" height="110" viewBox="0 0 550 110" fill="none" xmlns="http://www.w3.org/2000/svg">
<g clip-path="url(#clip0_1_23)">
<path d="M68.9058 73.5396C72.4717 70.4183 74.7954 66.3163 75.8908 61.2379H111.091C109.477 75.7533 103.634 87.505 93.5642 96.5021C83.49 105.499 71.0875 110 56.3658 110C45.6271 110 35.9608 107.64 27.3625 102.923C18.7642 98.2071 12.0542 91.6529 7.2325 83.2608C2.41083 74.8688 0 65.45 0 55C0 44.55 2.41083 35.1313 7.2325 26.7392C12.0542 18.3471 18.7642 11.7929 27.3625 7.07667C35.9608 2.35583 45.6271 0 56.3658 0C70.8537 0 83.0867 4.34042 93.0646 13.0258C103.038 21.7067 108.932 33.0871 110.733 47.1625H76.0375C74.5662 42.5196 72.05 38.7842 68.4842 35.9517C64.9229 33.1238 60.9308 31.7075 56.5125 31.7075C50.4304 31.7075 45.5262 33.8479 41.8 38.1288C38.0646 42.4096 36.2037 48.0333 36.2037 54.9954C36.2037 61.9163 38.0829 67.5171 41.8321 71.7979C45.5904 76.0788 50.4762 78.2146 56.5125 78.2146C61.215 78.2146 65.3446 76.6563 68.9058 73.5396ZM193.847 44.9396C200.681 51.4938 204.1 59.9729 204.1 70.3633C204.1 82.2433 200.168 91.8225 192.298 99.0917C184.424 106.365 174.057 110 161.177 110C148.454 110 138.11 106.352 130.139 99.055C122.164 91.7538 118.181 82.2983 118.181 70.6704C118.181 64.3225 119.277 57.9333 121.463 51.5075C123.649 45.0817 127.032 38.0508 131.61 30.4242L147.79 3.52L181.981 3.51542L162.837 35.2596C164.748 35.1588 166.256 35.1083 167.365 35.1083C178.177 35.1083 187.005 38.3854 193.847 44.9396ZM170.761 80.1167C173.222 77.6096 174.455 74.36 174.455 70.3633C174.455 66.3713 173.222 63.0942 170.761 60.5321C168.295 57.97 165.101 56.6913 161.182 56.6913C157.259 56.6913 154.06 57.9746 151.603 60.5321C149.132 63.0942 147.904 66.3713 147.904 70.3633C147.904 74.36 149.132 77.6096 151.598 80.1167C154.06 82.6283 157.259 83.8842 161.177 83.8842C165.101 83.8842 168.3 82.6283 170.761 80.1167ZM268.198 50.2333C280.344 53.8267 288.017 64.5746 288.017 78.4667C288.017 86.1438 285.367 92.8125 280.142 98.2896C274.95 103.725 268.437 106.485 260.782 106.485H227.663C227.603 106.484 227.542 106.471 227.487 106.448C227.431 106.424 227.38 106.389 227.337 106.346C227.295 106.302 227.261 106.251 227.238 106.195C227.216 106.138 227.204 106.078 227.205 106.017V3.98292C227.205 3.72625 227.407 3.51542 227.663 3.51542H256.836C263.927 3.51542 269.78 5.885 274.221 10.5646C278.786 15.0563 281.114 21.0604 281.114 28.38C281.114 38.1975 276.242 46.2917 268.198 50.2333ZM277.365 95.6633C282.022 90.9196 284.286 85.2958 284.286 78.4621C284.286 70.8721 281.962 64.6525 277.379 59.9867C272.635 55.1604 266.791 52.8092 259.513 52.8092H230.94V102.68H260.778C267.341 102.68 272.924 100.315 277.365 95.6633ZM230.936 7.31958V49.0096H256.836C262.895 49.0096 267.859 47.0754 271.599 43.2667C275.435 39.3617 277.379 34.3521 277.379 28.38C277.379 15.9775 268.932 7.31958 256.836 7.31958H230.936ZM549.913 105.747C549.962 105.816 549.992 105.897 549.999 105.981C550.005 106.066 549.988 106.151 549.95 106.226C549.912 106.302 549.853 106.366 549.781 106.41C549.709 106.455 549.626 106.479 549.542 106.48H546.067C545.993 106.481 545.919 106.463 545.853 106.429C545.787 106.394 545.73 106.344 545.687 106.283L508.567 53.2767L492.172 72.5542V106.012C492.173 106.074 492.162 106.134 492.14 106.191C492.117 106.248 492.084 106.3 492.041 106.344C491.999 106.388 491.948 106.423 491.892 106.447C491.835 106.471 491.775 106.484 491.714 106.485H488.955C488.894 106.484 488.834 106.471 488.778 106.448C488.722 106.424 488.671 106.389 488.629 106.346C488.586 106.302 488.552 106.251 488.53 106.195C488.507 106.138 488.496 106.078 488.496 106.017V3.98292C488.496 3.72625 488.702 3.51542 488.955 3.51542H491.714C491.966 3.51542 492.172 3.72625 492.172 3.98292V66.8846L545.417 3.68042C545.46 3.62892 545.514 3.58748 545.575 3.55898C545.636 3.53049 545.702 3.51562 545.77 3.51542H549.418C549.675 3.51542 549.881 3.72625 549.881 3.98292C549.881 4.0975 549.835 4.20292 549.771 4.28542L511.037 50.2654L549.913 105.747ZM465.19 3.51542C465.442 3.51542 465.648 3.72625 465.648 3.98292V106.017C465.649 106.078 465.638 106.138 465.615 106.195C465.592 106.251 465.559 106.302 465.516 106.346C465.473 106.389 465.423 106.424 465.367 106.448C465.311 106.471 465.251 106.484 465.19 106.485H463.92C463.848 106.485 463.776 106.468 463.711 106.434C463.646 106.401 463.591 106.352 463.549 106.292L396.724 11.8754V106.017C396.725 106.078 396.713 106.138 396.691 106.195C396.668 106.251 396.634 106.302 396.592 106.346C396.549 106.389 396.499 106.424 396.443 106.448C396.387 106.471 396.327 106.484 396.266 106.485H393.452C393.391 106.484 393.331 106.471 393.275 106.448C393.219 106.424 393.168 106.389 393.126 106.346C393.083 106.302 393.049 106.251 393.027 106.195C393.004 106.138 392.993 106.078 392.993 106.017V3.98292C392.993 3.72625 393.2 3.51542 393.452 3.51542H395.239C395.311 3.51647 395.382 3.53445 395.445 3.56789C395.509 3.60134 395.564 3.6493 395.606 3.70792L461.913 97.3913V3.9875C461.913 3.73083 462.119 3.52 462.371 3.52L465.19 3.51542ZM376.374 105.852C376.402 105.922 376.412 105.998 376.403 106.073C376.395 106.148 376.368 106.22 376.326 106.282C376.284 106.345 376.226 106.396 376.16 106.431C376.093 106.466 376.019 106.485 375.943 106.485H373.019C372.924 106.484 372.831 106.453 372.754 106.398C372.677 106.342 372.619 106.263 372.588 106.173L360.892 74.6258H313.211L301.519 106.182C301.487 106.271 301.429 106.347 301.351 106.401C301.274 106.455 301.183 106.485 301.088 106.485H298.16C298.084 106.484 298.01 106.465 297.943 106.429C297.876 106.394 297.82 106.342 297.777 106.279C297.735 106.216 297.709 106.144 297.702 106.069C297.694 105.994 297.705 105.918 297.733 105.848L335.729 3.81792C335.761 3.72933 335.82 3.65277 335.897 3.59864C335.974 3.54452 336.066 3.51546 336.16 3.51542H337.938C338.034 3.51484 338.127 3.54413 338.205 3.59919C338.283 3.65425 338.342 3.73232 338.374 3.8225L376.374 105.852ZM314.582 70.8217H359.526L337.058 10.8579L314.582 70.8217Z" fill="#242424"/>
</g>
<defs>
<clipPath id="clip0_1_23">
<rect width="550" height="110" fill="white"/>
</clipPath>
</defs>
</svg>
